# xmcd CD database file
#
# Track frame offsets:
#	150
#	12717
#	25407
#	37305
#	49395
#	60597
#	73325
#	86370
#	99600
#	112457
#	122679
#	135197
#	147315
#	161450
#	172957
#	187837
#
# Disc length: 2696 seconds
#
# Revision: 4
# Processed by: cddbd v1.4PL0 Copyright (c) Steve Scherf et al.
# Submitted via: CDex 1.50
#
DISCID=e80a8610
DTITLE=Bill Monroe - 16 Gems
DYEAR=1996
DGENRE=Bluegrass
TTITLE0=Kentucky Waltz
TTITLE1=True Life Blues
TTITLE2=Nobody Loves Me
TTITLE3=Good-bye Old Pal
TTITLE4=Blue Grass Special
TTITLE5=Heavy Traffic Ahead
TTITLE6=Summertime is Past and Gone
TTITLE7=I'm Going Back to Old Kentucky
TTITLE8=It's Mighty Dark to Travel
TTITLE9=Blue Grass Breakdown
TTITLE10=Sweetheart You Done Me Wrong
TTITLE11=Old Cross Road is Watin'
TTITLE12=Remember the Cross
TTITLE13=Shine Hallelujah Shine
TTITLE14=Can't You Hear Me Calling
TTITLE15=Travelin' This Lonesome Road
EXTD=YEAR: 1996
EXTT0=
EXTT1=
EXTT2=
EXTT3=
EXTT4=
EXTT5=
EXTT6=
EXTT7=
EXTT8=
EXTT9=
EXTT10=
EXTT11=
EXTT12=
EXTT13=
EXTT14=
EXTT15=
PLAYORDER=
